<mxfile host="65bd71144e">
    <diagram id="8strOzP1w5-fZRqT0C2O" name="Page-1">
        <mxGraphModel dx="1113" dy="626" grid="0" gridSize="10" guides="1" tooltips="1" connect="1" arrows="1" fold="1" page="1" pageScale="1" pageWidth="4681" pageHeight="3300" background="none" math="0" shadow="0">
            <root>
                <mxCell id="0"/>
                <mxCell id="1" parent="0"/>
                <mxCell id="2" value="" style="strokeWidth=1;shadow=0;dashed=0;align=center;html=1;shape=mxgraph.mockup.containers.browserWindow;rSize=0;strokeColor=#666666;strokeColor2=#008cff;strokeColor3=#c4c4c4;mainText=,;recursiveResize=0;" vertex="1" parent="1">
                    <mxGeometry x="20" y="60" width="1120" height="570" as="geometry"/>
                </mxCell>
                <mxCell id="14" value="Blog" style="fillColor=none;strokeColor=none;fontSize=14;fontColor=#0085FC;" vertex="1" parent="2">
                    <mxGeometry x="865" y="130" width="60" height="40" as="geometry"/>
                </mxCell>
                <mxCell id="3" value="Page 1" style="strokeWidth=1;shadow=0;dashed=0;align=center;html=1;shape=mxgraph.mockup.containers.anchor;fontSize=17;fontColor=#666666;align=left;" vertex="1" parent="2">
                    <mxGeometry x="60" y="12" width="110" height="26" as="geometry"/>
                </mxCell>
                <mxCell id="4" value="https://www.bienesraices" style="strokeWidth=1;shadow=0;dashed=0;align=center;html=1;shape=mxgraph.mockup.containers.anchor;rSize=0;fontSize=17;fontColor=#666666;align=left;" vertex="1" parent="2">
                    <mxGeometry x="130" y="60" width="250" height="26" as="geometry"/>
                </mxCell>
                <mxCell id="10" value="" style="verticalLabelPosition=bottom;shadow=0;dashed=0;align=center;html=1;verticalAlign=top;strokeWidth=1;shape=mxgraph.mockup.graphics.simpleIcon;strokeColor=#999999;" vertex="1" parent="2">
                    <mxGeometry x="10" y="120" width="50" height="50" as="geometry"/>
                </mxCell>
                <mxCell id="11" value="" style="verticalLabelPosition=bottom;shadow=0;dashed=0;align=center;html=1;verticalAlign=top;strokeWidth=1;shape=mxgraph.mockup.navigation.scrollBar;strokeColor=#999999;barPos=20;fillColor2=#99ddff;strokeColor2=none;direction=north;" vertex="1" parent="2">
                    <mxGeometry x="1090" y="180" width="20" height="380" as="geometry"/>
                </mxCell>
                <mxCell id="12" value="Nosotros" style="html=1;shadow=0;dashed=0;shape=mxgraph.bootstrap.rrect;rSize=5;fillColor=#0085FC;strokeColor=none;fontSize=14;fontColor=#ffffff;" vertex="1" parent="2">
                    <mxGeometry x="640" y="130" width="80" height="40" as="geometry"/>
                </mxCell>
                <mxCell id="13" value="Propiedades" style="fillColor=none;strokeColor=none;fontSize=14;fontColor=#0085FC;" vertex="1" parent="2">
                    <mxGeometry x="750" y="130" width="70" height="40" as="geometry"/>
                </mxCell>
                <mxCell id="16" value="Contácto" style="fillColor=none;strokeColor=none;fontSize=14;fontColor=#0085FC;" vertex="1" parent="2">
                    <mxGeometry x="955" y="130" width="60" height="40" as="geometry"/>
                </mxCell>
                <mxCell id="17" value="Some quick example text to build on the card title and make up the bulk of the card's content.Some quick example text to build on the card title and make up the bulk of the card's content.Some quick example text to build on the card title and make up the bulk of the card's content.&lt;br&gt;Some quick example text to build on the card title and make up the bulk of the card's content.Some quick example text to build on the card title and make up the bulk of the card's content.Some quick example text to build on the card title and make up the bulk of the card's content.Some quick example text to build on the card title and make up the bulk of the card's content.&lt;br&gt;Some quick example text to build on the card title and make up the bulk of the card's content." style="html=1;shadow=0;dashed=0;shape=mxgraph.bootstrap.rrect;rSize=5;strokeColor=#DFDFDF;html=1;whiteSpace=wrap;fillColor=#ffffff;fontColor=#000000;verticalAlign=bottom;align=left;spacing=20;fontSize=14;" vertex="1" parent="2">
                    <mxGeometry x="640" y="230" width="390" height="280" as="geometry"/>
                </mxCell>
                <mxCell id="18" value="" style="html=1;shadow=0;dashed=0;shape=mxgraph.bootstrap.topButton;rSize=5;perimeter=none;whiteSpace=wrap;fillColor=#868E96;strokeColor=#DFDFDF;fontColor=#DEE2E6;resizeWidth=1;fontSize=18;" vertex="1" parent="2">
                    <mxGeometry width="410" height="280" relative="1" as="geometry">
                        <mxPoint x="155" y="230" as="offset"/>
                    </mxGeometry>
                </mxCell>
                <mxCell id="19" value="" style="verticalLabelPosition=bottom;shadow=0;dashed=0;align=center;html=1;verticalAlign=top;strokeWidth=1;shape=mxgraph.mockup.misc.loading_circle_1;pointerEvents=1;" vertex="1" parent="2">
                    <mxGeometry x="310" y="325" width="90" height="90" as="geometry"/>
                </mxCell>
                <mxCell id="20" value="" style="strokeWidth=1;shadow=0;dashed=0;align=center;html=1;shape=mxgraph.mockup.containers.browserWindow;rSize=0;strokeColor=#666666;strokeColor2=#008cff;strokeColor3=#c4c4c4;mainText=,;recursiveResize=0;" vertex="1" parent="1">
                    <mxGeometry x="20" y="670" width="1120" height="570" as="geometry"/>
                </mxCell>
                <mxCell id="21" value="Blog" style="fillColor=none;strokeColor=none;fontSize=14;fontColor=#0085FC;" vertex="1" parent="20">
                    <mxGeometry x="865" y="130" width="60" height="40" as="geometry"/>
                </mxCell>
                <mxCell id="22" value="Page 2" style="strokeWidth=1;shadow=0;dashed=0;align=center;html=1;shape=mxgraph.mockup.containers.anchor;fontSize=17;fontColor=#666666;align=left;" vertex="1" parent="20">
                    <mxGeometry x="60" y="12" width="110" height="26" as="geometry"/>
                </mxCell>
                <mxCell id="23" value="https://www.bienesraices" style="strokeWidth=1;shadow=0;dashed=0;align=center;html=1;shape=mxgraph.mockup.containers.anchor;rSize=0;fontSize=17;fontColor=#666666;align=left;" vertex="1" parent="20">
                    <mxGeometry x="130" y="60" width="250" height="26" as="geometry"/>
                </mxCell>
                <mxCell id="24" value="" style="verticalLabelPosition=bottom;shadow=0;dashed=0;align=center;html=1;verticalAlign=top;strokeWidth=1;shape=mxgraph.mockup.graphics.simpleIcon;strokeColor=#999999;" vertex="1" parent="20">
                    <mxGeometry x="10" y="120" width="50" height="50" as="geometry"/>
                </mxCell>
                <mxCell id="25" value="" style="verticalLabelPosition=bottom;shadow=0;dashed=0;align=center;html=1;verticalAlign=top;strokeWidth=1;shape=mxgraph.mockup.navigation.scrollBar;strokeColor=#999999;barPos=20;fillColor2=#99ddff;strokeColor2=none;direction=north;" vertex="1" parent="20">
                    <mxGeometry x="1090" y="180" width="20" height="380" as="geometry"/>
                </mxCell>
                <mxCell id="26" value="Propiedades" style="html=1;shadow=0;dashed=0;shape=mxgraph.bootstrap.rrect;rSize=5;fillColor=#0085FC;strokeColor=none;fontSize=14;fontColor=#ffffff;" vertex="1" parent="20">
                    <mxGeometry x="770" y="130" width="90" height="40" as="geometry"/>
                </mxCell>
                <mxCell id="27" value="Nosotros" style="fillColor=none;strokeColor=none;fontSize=14;fontColor=#0085FC;" vertex="1" parent="20">
                    <mxGeometry x="680" y="130" width="70" height="40" as="geometry"/>
                </mxCell>
                <mxCell id="28" value="Contácto" style="fillColor=none;strokeColor=none;fontSize=14;fontColor=#0085FC;" vertex="1" parent="20">
                    <mxGeometry x="955" y="130" width="60" height="40" as="geometry"/>
                </mxCell>
                <mxCell id="53" value="&lt;span style=&quot;font-size: 20px;&quot;&gt;&lt;b&gt;Propiedad 1&lt;/b&gt;&lt;/span&gt;&lt;br&gt;&lt;br&gt;This card has supporting text below as a natural lead-in to additional content." style="html=1;shadow=0;dashed=0;shape=mxgraph.bootstrap.rrect;rSize=5;strokeColor=#DFDFDF;html=1;whiteSpace=wrap;fillColor=#ffffff;fontColor=#000000;verticalAlign=top;align=left;spacing=20;spacingBottom=0;fontSize=14;spacingTop=160;" vertex="1" parent="20">
                    <mxGeometry x="150" y="185" width="260" height="370" as="geometry"/>
                </mxCell>
                <mxCell id="54" value="" style="html=1;shadow=0;dashed=0;shape=mxgraph.bootstrap.topButton;rSize=5;perimeter=none;whiteSpace=wrap;fillColor=#868E96;strokeColor=#DFDFDF;fontColor=#DEE2E6;resizeWidth=1;fontSize=18;" vertex="1" parent="53">
                    <mxGeometry width="260" height="160" relative="1" as="geometry"/>
                </mxCell>
                <mxCell id="55" value="Last updated 3 mins ago" style="html=1;shadow=0;dashed=0;shape=mxgraph.bootstrap.bottomButton;rSize=5;perimeter=none;whiteSpace=wrap;fillColor=#F7F7F7;strokeColor=#DFDFDF;fontColor=#6C767D;resizeWidth=1;fontSize=13;align=left;spacing=20;" vertex="1" parent="53">
                    <mxGeometry y="1" width="260" height="50" relative="1" as="geometry">
                        <mxPoint y="-50" as="offset"/>
                    </mxGeometry>
                </mxCell>
                <mxCell id="56" value="&lt;span style=&quot;font-size: 20px;&quot;&gt;&lt;b&gt;Propiedad 2&lt;/b&gt;&lt;/span&gt;&lt;br&gt;&lt;br&gt;This is a wider card with supporting text below as a natural lead-in to additional content. This card has even longer content than the first to show that equal height action." style="html=1;shadow=0;dashed=0;shape=mxgraph.bootstrap.rrect;rSize=5;strokeColor=#DFDFDF;html=1;whiteSpace=wrap;fillColor=#ffffff;fontColor=#000000;verticalAlign=top;align=left;spacing=20;spacingBottom=0;fontSize=14;spacingTop=160;" vertex="1" parent="20">
                    <mxGeometry x="440" y="185" width="260" height="370" as="geometry"/>
                </mxCell>
                <mxCell id="57" value="" style="html=1;shadow=0;dashed=0;shape=mxgraph.bootstrap.topButton;rSize=5;perimeter=none;whiteSpace=wrap;fillColor=#868E96;strokeColor=#DFDFDF;fontColor=#DEE2E6;resizeWidth=1;fontSize=18;" vertex="1" parent="56">
                    <mxGeometry width="260" height="160" relative="1" as="geometry"/>
                </mxCell>
                <mxCell id="58" value="Last updated 3 mins ago" style="html=1;shadow=0;dashed=0;shape=mxgraph.bootstrap.bottomButton;rSize=5;perimeter=none;whiteSpace=wrap;fillColor=#F7F7F7;strokeColor=#DFDFDF;fontColor=#6C767D;resizeWidth=1;fontSize=13;align=left;spacing=20;" vertex="1" parent="56">
                    <mxGeometry y="1" width="260" height="50" relative="1" as="geometry">
                        <mxPoint y="-50" as="offset"/>
                    </mxGeometry>
                </mxCell>
                <mxCell id="60" value="" style="verticalLabelPosition=bottom;shadow=0;dashed=0;align=center;html=1;verticalAlign=top;strokeWidth=1;shape=mxgraph.mockup.misc.loading_circle_1;pointerEvents=1;" vertex="1" parent="56">
                    <mxGeometry x="95" y="45" width="70" height="75" as="geometry"/>
                </mxCell>
                <mxCell id="50" value="&lt;span style=&quot;font-size: 20px;&quot;&gt;&lt;b&gt;Propiedad 3&lt;/b&gt;&lt;/span&gt;&lt;br&gt;&lt;br&gt;This is a wider card with supporting text below as a natural lead-in to additional content. This content is a little bit longer." style="html=1;shadow=0;dashed=0;shape=mxgraph.bootstrap.rrect;rSize=5;strokeColor=#DFDFDF;html=1;whiteSpace=wrap;fillColor=#ffffff;fontColor=#000000;verticalAlign=top;align=left;spacing=20;spacingBottom=0;fontSize=14;spacingTop=160;" vertex="1" parent="20">
                    <mxGeometry width="260" height="370" relative="1" as="geometry">
                        <mxPoint x="730" y="185" as="offset"/>
                    </mxGeometry>
                </mxCell>
                <mxCell id="51" value="" style="html=1;shadow=0;dashed=0;shape=mxgraph.bootstrap.topButton;rSize=5;perimeter=none;whiteSpace=wrap;fillColor=#868E96;strokeColor=#DFDFDF;fontColor=#DEE2E6;resizeWidth=1;fontSize=18;" vertex="1" parent="50">
                    <mxGeometry width="260" height="160" relative="1" as="geometry"/>
                </mxCell>
                <mxCell id="52" value="Last updated 3 mins ago" style="html=1;shadow=0;dashed=0;shape=mxgraph.bootstrap.bottomButton;rSize=5;perimeter=none;whiteSpace=wrap;fillColor=#F7F7F7;strokeColor=#DFDFDF;fontColor=#6C767D;resizeWidth=1;fontSize=13;align=left;spacing=20;" vertex="1" parent="50">
                    <mxGeometry y="1" width="260" height="50" relative="1" as="geometry">
                        <mxPoint y="-50" as="offset"/>
                    </mxGeometry>
                </mxCell>
                <mxCell id="61" value="" style="verticalLabelPosition=bottom;shadow=0;dashed=0;align=center;html=1;verticalAlign=top;strokeWidth=1;shape=mxgraph.mockup.misc.loading_circle_1;pointerEvents=1;" vertex="1" parent="50">
                    <mxGeometry x="100" y="45" width="70" height="75" as="geometry"/>
                </mxCell>
                <mxCell id="62" value="" style="strokeWidth=1;shadow=0;dashed=0;align=center;html=1;shape=mxgraph.mockup.containers.browserWindow;rSize=0;strokeColor=#666666;strokeColor2=#008cff;strokeColor3=#c4c4c4;mainText=,;recursiveResize=0;" vertex="1" parent="1">
                    <mxGeometry x="30" y="1300" width="1120" height="610" as="geometry"/>
                </mxCell>
                <mxCell id="63" value="Propiedades" style="fillColor=none;strokeColor=none;fontSize=14;fontColor=#0085FC;" vertex="1" parent="62">
                    <mxGeometry x="780" y="130" width="60" height="40" as="geometry"/>
                </mxCell>
                <mxCell id="64" value="Page 3" style="strokeWidth=1;shadow=0;dashed=0;align=center;html=1;shape=mxgraph.mockup.containers.anchor;fontSize=17;fontColor=#666666;align=left;" vertex="1" parent="62">
                    <mxGeometry x="60" y="12" width="110" height="26" as="geometry"/>
                </mxCell>
                <mxCell id="65" value="https://www.bienesraices" style="strokeWidth=1;shadow=0;dashed=0;align=center;html=1;shape=mxgraph.mockup.containers.anchor;rSize=0;fontSize=17;fontColor=#666666;align=left;" vertex="1" parent="62">
                    <mxGeometry x="130" y="60" width="250" height="26" as="geometry"/>
                </mxCell>
                <mxCell id="66" value="" style="verticalLabelPosition=bottom;shadow=0;dashed=0;align=center;html=1;verticalAlign=top;strokeWidth=1;shape=mxgraph.mockup.graphics.simpleIcon;strokeColor=#999999;" vertex="1" parent="62">
                    <mxGeometry x="10" y="120" width="50" height="50" as="geometry"/>
                </mxCell>
                <mxCell id="67" value="" style="verticalLabelPosition=bottom;shadow=0;dashed=0;align=center;html=1;verticalAlign=top;strokeWidth=1;shape=mxgraph.mockup.navigation.scrollBar;strokeColor=#999999;barPos=20;fillColor2=#99ddff;strokeColor2=none;direction=north;" vertex="1" parent="62">
                    <mxGeometry x="1090" y="180" width="20" height="380" as="geometry"/>
                </mxCell>
                <mxCell id="68" value="Blog" style="html=1;shadow=0;dashed=0;shape=mxgraph.bootstrap.rrect;rSize=5;fillColor=#0085FC;strokeColor=none;fontSize=14;fontColor=#ffffff;" vertex="1" parent="62">
                    <mxGeometry x="870" y="130" width="70" height="40" as="geometry"/>
                </mxCell>
                <mxCell id="69" value="Nosotros" style="fillColor=none;strokeColor=none;fontSize=14;fontColor=#0085FC;" vertex="1" parent="62">
                    <mxGeometry x="680" y="130" width="70" height="40" as="geometry"/>
                </mxCell>
                <mxCell id="70" value="Contácto" style="fillColor=none;strokeColor=none;fontSize=14;fontColor=#0085FC;" vertex="1" parent="62">
                    <mxGeometry x="955" y="130" width="60" height="40" as="geometry"/>
                </mxCell>
                <mxCell id="92" value="" style="html=1;shadow=0;dashed=0;shape=mxgraph.bootstrap.topButton;rSize=5;perimeter=none;whiteSpace=wrap;fillColor=#868E96;strokeColor=#DFDFDF;fontColor=#DEE2E6;resizeWidth=1;fontSize=18;" vertex="1" parent="62">
                    <mxGeometry x="140" y="260" width="340" height="100" as="geometry"/>
                </mxCell>
                <mxCell id="93" value="" style="html=1;shadow=0;dashed=0;shape=mxgraph.bootstrap.topButton;rSize=5;perimeter=none;whiteSpace=wrap;fillColor=#868E96;strokeColor=#DFDFDF;fontColor=#DEE2E6;resizeWidth=1;fontSize=18;" vertex="1" parent="62">
                    <mxGeometry x="140" y="370" width="340" height="100" as="geometry"/>
                </mxCell>
                <mxCell id="94" value="" style="html=1;shadow=0;dashed=0;shape=mxgraph.bootstrap.topButton;rSize=5;perimeter=none;whiteSpace=wrap;fillColor=#868E96;strokeColor=#DFDFDF;fontColor=#DEE2E6;resizeWidth=1;fontSize=18;" vertex="1" parent="62">
                    <mxGeometry x="140" y="480" width="340" height="100" as="geometry"/>
                </mxCell>
                <mxCell id="83" value="" style="html=1;shadow=0;dashed=0;shape=mxgraph.bootstrap.rrect;rSize=5;strokeColor=#DFDFDF;html=1;whiteSpace=wrap;fillColor=#FFFFFF;fontColor=#495057;" vertex="1" parent="62">
                    <mxGeometry x="600" y="270" width="390" height="300" as="geometry"/>
                </mxCell>
                <mxCell id="84" value="&lt;font style=&quot;font-size: 16px&quot;&gt;List group item heading&lt;/font&gt;&lt;br&gt;&lt;br&gt;Donec id elit non mi porta gravida at eget metus. Maecenas sed diam eget risus varius blandit.&lt;br&gt;&lt;font style=&quot;font-size: 11px&quot;&gt;Donec id elit mi porta.&lt;/font&gt;" style="html=1;shadow=0;dashed=0;shape=mxgraph.bootstrap.topButton;rSize=5;perimeter=none;whiteSpace=wrap;resizeWidth=1;align=left;spacing=10;verticalAlign=top;fillColor=#0085FC;strokeColor=#0085FC;fontColor=#ffffff;" vertex="1" parent="83">
                    <mxGeometry width="390" height="100" relative="1" as="geometry"/>
                </mxCell>
                <mxCell id="85" value="3 days ago" style="strokeColor=none;fillColor=none;fontColor=#ffffff;fontSize=11;" vertex="1" parent="84">
                    <mxGeometry x="1" width="90" height="40" relative="1" as="geometry">
                        <mxPoint x="-90" as="offset"/>
                    </mxGeometry>
                </mxCell>
                <mxCell id="86" value="&lt;font style=&quot;font-size: 16px&quot;&gt;List group item heading&lt;/font&gt;&lt;br&gt;&lt;br&gt;Donec id elit non mi porta gravida at eget metus. Maecenas sed diam eget risus varius blandit.&lt;br&gt;&lt;font style=&quot;font-size: 11px&quot;&gt;Donec id elit mi porta.&lt;/font&gt;" style="strokeColor=inherit;fillColor=inherit;gradientColor=inherit;fontColor=inherit;html=1;shadow=0;dashed=0;perimeter=none;whiteSpace=wrap;resizeWidth=1;align=left;spacing=10;" vertex="1" parent="83">
                    <mxGeometry width="390" height="100" relative="1" as="geometry">
                        <mxPoint y="100" as="offset"/>
                    </mxGeometry>
                </mxCell>
                <mxCell id="87" value="3 days ago" style="strokeColor=none;fillColor=none;fontColor=#6C767D;fontSize=11;" vertex="1" parent="86">
                    <mxGeometry x="1" width="90" height="40" relative="1" as="geometry">
                        <mxPoint x="-90" as="offset"/>
                    </mxGeometry>
                </mxCell>
                <mxCell id="88" value="&lt;font style=&quot;font-size: 16px&quot;&gt;List group item heading&lt;/font&gt;&lt;br&gt;&lt;br&gt;Donec id elit non mi porta gravida at eget metus. Maecenas sed diam eget risus varius blandit.&lt;br&gt;&lt;font style=&quot;font-size: 11px&quot;&gt;Donec id elit mi porta.&lt;/font&gt;" style="strokeColor=inherit;fillColor=inherit;gradientColor=inherit;fontColor=inherit;html=1;shadow=0;dashed=0;shape=mxgraph.bootstrap.bottomButton;rSize=5;perimeter=none;whiteSpace=wrap;resizeWidth=1;resizeHeight=0;align=left;spacing=10;" vertex="1" parent="83">
                    <mxGeometry y="1" width="390" height="100" relative="1" as="geometry">
                        <mxPoint y="-100" as="offset"/>
                    </mxGeometry>
                </mxCell>
                <mxCell id="89" value="3 days ago" style="strokeColor=none;fillColor=none;fontColor=#6C767D;fontSize=11;" vertex="1" parent="88">
                    <mxGeometry x="1" width="90" height="40" relative="1" as="geometry">
                        <mxPoint x="-90" as="offset"/>
                    </mxGeometry>
                </mxCell>
                <mxCell id="59" value="&lt;span style=&quot;color: rgba(0, 0, 0, 0); font-family: monospace; font-size: 0px; text-align: start;&quot;&gt;%3CmxGraphModel%3E%3Croot%3E%3CmxCell%20id%3D%220%22%2F%3E%3CmxCell%20id%3D%221%22%20parent%3D%220%22%2F%3E%3CmxCell%20id%3D%222%22%20value%3D%22%22%20style%3D%22html%3D1%3Bshadow%3D0%3Bdashed%3D0%3Bshape%3Dmxgraph.bootstrap.topButton%3BrSize%3D5%3Bperimeter%3Dnone%3BwhiteSpace%3Dwrap%3BfillColor%3D%23868E96%3BstrokeColor%3D%23DFDFDF%3BfontColor%3D%23DEE2E6%3BresizeWidth%3D1%3BfontSize%3D18%3B%22%20vertex%3D%221%22%20parent%3D%221%22%3E%3CmxGeometry%20x%3D%22170%22%20y%3D%221560%22%20width%3D%22340%22%20height%3D%22100%22%20as%3D%22geometry%22%2F%3E%3C%2FmxCell%3E%3C%2Froot%3E%3C%2FmxGraphModel%3E&lt;/span&gt;" style="verticalLabelPosition=bottom;shadow=0;dashed=0;align=center;html=1;verticalAlign=top;strokeWidth=1;shape=mxgraph.mockup.misc.loading_circle_1;pointerEvents=1;" vertex="1" parent="62">
                    <mxGeometry x="285" y="285" width="50" height="50" as="geometry"/>
                </mxCell>
                <mxCell id="96" value="&lt;span style=&quot;color: rgba(0, 0, 0, 0); font-family: monospace; font-size: 0px; text-align: start;&quot;&gt;%3CmxGraphModel%3E%3Croot%3E%3CmxCell%20id%3D%220%22%2F%3E%3CmxCell%20id%3D%221%22%20parent%3D%220%22%2F%3E%3CmxCell%20id%3D%222%22%20value%3D%22%22%20style%3D%22html%3D1%3Bshadow%3D0%3Bdashed%3D0%3Bshape%3Dmxgraph.bootstrap.topButton%3BrSize%3D5%3Bperimeter%3Dnone%3BwhiteSpace%3Dwrap%3BfillColor%3D%23868E96%3BstrokeColor%3D%23DFDFDF%3BfontColor%3D%23DEE2E6%3BresizeWidth%3D1%3BfontSize%3D18%3B%22%20vertex%3D%221%22%20parent%3D%221%22%3E%3CmxGeometry%20x%3D%22170%22%20y%3D%221560%22%20width%3D%22340%22%20height%3D%22100%22%20as%3D%22geometry%22%2F%3E%3C%2FmxCell%3E%3C%2Froot%3E%3C%2FmxGraphModel%3E&lt;/span&gt;" style="verticalLabelPosition=bottom;shadow=0;dashed=0;align=center;html=1;verticalAlign=top;strokeWidth=1;shape=mxgraph.mockup.misc.loading_circle_1;pointerEvents=1;" vertex="1" parent="62">
                    <mxGeometry x="285" y="395" width="50" height="50" as="geometry"/>
                </mxCell>
                <mxCell id="97" value="&lt;span style=&quot;color: rgba(0, 0, 0, 0); font-family: monospace; font-size: 0px; text-align: start;&quot;&gt;%3CmxGraphModel%3E%3Croot%3E%3CmxCell%20id%3D%220%22%2F%3E%3CmxCell%20id%3D%221%22%20parent%3D%220%22%2F%3E%3CmxCell%20id%3D%222%22%20value%3D%22%22%20style%3D%22html%3D1%3Bshadow%3D0%3Bdashed%3D0%3Bshape%3Dmxgraph.bootstrap.topButton%3BrSize%3D5%3Bperimeter%3Dnone%3BwhiteSpace%3Dwrap%3BfillColor%3D%23868E96%3BstrokeColor%3D%23DFDFDF%3BfontColor%3D%23DEE2E6%3BresizeWidth%3D1%3BfontSize%3D18%3B%22%20vertex%3D%221%22%20parent%3D%221%22%3E%3CmxGeometry%20x%3D%22170%22%20y%3D%221560%22%20width%3D%22340%22%20height%3D%22100%22%20as%3D%22geometry%22%2F%3E%3C%2FmxCell%3E%3C%2Froot%3E%3C%2FmxGraphModel%3E&lt;/span&gt;" style="verticalLabelPosition=bottom;shadow=0;dashed=0;align=center;html=1;verticalAlign=top;strokeWidth=1;shape=mxgraph.mockup.misc.loading_circle_1;pointerEvents=1;" vertex="1" parent="62">
                    <mxGeometry x="285" y="505" width="50" height="50" as="geometry"/>
                </mxCell>
                <mxCell id="98" value="" style="strokeWidth=1;shadow=0;dashed=0;align=center;html=1;shape=mxgraph.mockup.containers.browserWindow;rSize=0;strokeColor=#666666;strokeColor2=#008cff;strokeColor3=#c4c4c4;mainText=,;recursiveResize=0;" vertex="1" parent="1">
                    <mxGeometry x="40" y="1940" width="1120" height="610" as="geometry"/>
                </mxCell>
                <mxCell id="99" value="Propiedades" style="fillColor=none;strokeColor=none;fontSize=14;fontColor=#0085FC;" vertex="1" parent="98">
                    <mxGeometry x="780" y="130" width="60" height="40" as="geometry"/>
                </mxCell>
                <mxCell id="100" value="Page 4" style="strokeWidth=1;shadow=0;dashed=0;align=center;html=1;shape=mxgraph.mockup.containers.anchor;fontSize=17;fontColor=#666666;align=left;" vertex="1" parent="98">
                    <mxGeometry x="60" y="12" width="110" height="26" as="geometry"/>
                </mxCell>
                <mxCell id="101" value="https://www.bienesraices" style="strokeWidth=1;shadow=0;dashed=0;align=center;html=1;shape=mxgraph.mockup.containers.anchor;rSize=0;fontSize=17;fontColor=#666666;align=left;" vertex="1" parent="98">
                    <mxGeometry x="130" y="60" width="250" height="26" as="geometry"/>
                </mxCell>
                <mxCell id="102" value="" style="verticalLabelPosition=bottom;shadow=0;dashed=0;align=center;html=1;verticalAlign=top;strokeWidth=1;shape=mxgraph.mockup.graphics.simpleIcon;strokeColor=#999999;" vertex="1" parent="98">
                    <mxGeometry x="10" y="120" width="50" height="50" as="geometry"/>
                </mxCell>
                <mxCell id="103" value="" style="verticalLabelPosition=bottom;shadow=0;dashed=0;align=center;html=1;verticalAlign=top;strokeWidth=1;shape=mxgraph.mockup.navigation.scrollBar;strokeColor=#999999;barPos=20;fillColor2=#99ddff;strokeColor2=none;direction=north;" vertex="1" parent="98">
                    <mxGeometry x="1090" y="180" width="20" height="380" as="geometry"/>
                </mxCell>
                <mxCell id="104" value="Contácto" style="html=1;shadow=0;dashed=0;shape=mxgraph.bootstrap.rrect;rSize=5;fillColor=#0085FC;strokeColor=none;fontSize=14;fontColor=#ffffff;" vertex="1" parent="98">
                    <mxGeometry x="970" y="130" width="70" height="40" as="geometry"/>
                </mxCell>
                <mxCell id="105" value="Nosotros" style="fillColor=none;strokeColor=none;fontSize=14;fontColor=#0085FC;" vertex="1" parent="98">
                    <mxGeometry x="680" y="130" width="70" height="40" as="geometry"/>
                </mxCell>
                <mxCell id="106" value="Blog" style="fillColor=none;strokeColor=none;fontSize=14;fontColor=#0085FC;" vertex="1" parent="98">
                    <mxGeometry x="880" y="130" width="60" height="40" as="geometry"/>
                </mxCell>
                <mxCell id="126" value="&amp;nbsp; &amp;nbsp; &amp;nbsp; &amp;nbsp;" style="html=1;shadow=0;dashed=0;shape=mxgraph.bootstrap.rrect;rSize=5;strokeColor=#CED4DA;html=1;whiteSpace=wrap;fillColor=#FFFFFF;fontColor=#7D868C;align=left;spacing=15;spacingLeft=40;fontSize=14;" vertex="1" parent="98">
                    <mxGeometry x="145" y="240" width="800" height="40" as="geometry"/>
                </mxCell>
                <mxCell id="127" value="Nombre" style="html=1;shadow=0;dashed=0;shape=mxgraph.bootstrap.leftButton;strokeColor=inherit;gradientColor=inherit;fontColor=inherit;fillColor=#E9ECEF;rSize=5;perimeter=none;whiteSpace=wrap;resizeHeight=1;fontSize=14;" vertex="1" parent="126">
                    <mxGeometry width="80" height="40" as="geometry"/>
                </mxCell>
                <mxCell id="133" value="" style="html=1;shadow=0;dashed=0;shape=mxgraph.bootstrap.rrect;rSize=5;strokeColor=#CED4DA;html=1;whiteSpace=wrap;fillColor=#FFFFFF;fontColor=#7D868C;align=left;spacing=15;spacingLeft=40;fontSize=14;" vertex="1" parent="98">
                    <mxGeometry x="145" y="410" width="800" height="40" as="geometry"/>
                </mxCell>
                <mxCell id="134" value="$" style="html=1;shadow=0;dashed=0;shape=mxgraph.bootstrap.leftButton;strokeColor=inherit;gradientColor=inherit;fontColor=inherit;fillColor=#E9ECEF;rSize=5;perimeter=none;whiteSpace=wrap;resizeHeight=1;fontSize=14;" vertex="1" parent="133">
                    <mxGeometry width="40" height="40" as="geometry"/>
                </mxCell>
                <mxCell id="135" value=".00" style="html=1;shadow=0;dashed=0;shape=mxgraph.bootstrap.rightButton;strokeColor=inherit;gradientColor=inherit;fontColor=inherit;fillColor=#E9ECEF;rSize=5;perimeter=none;whiteSpace=wrap;resizeHeight=1;fontSize=14;" vertex="1" parent="133">
                    <mxGeometry x="1" width="40" height="40" relative="1" as="geometry">
                        <mxPoint x="-40" as="offset"/>
                    </mxGeometry>
                </mxCell>
                <mxCell id="136" value="" style="html=1;shadow=0;dashed=0;shape=mxgraph.bootstrap.rrect;rSize=5;strokeColor=#CED4DA;html=1;whiteSpace=wrap;fillColor=#FFFFFF;fontColor=#7D868C;align=left;spacing=15;spacingLeft=40;fontSize=14;" vertex="1" parent="98">
                    <mxGeometry x="145" y="470" width="800" height="70" as="geometry"/>
                </mxCell>
                <mxCell id="137" value="Mensaje" style="html=1;shadow=0;dashed=0;shape=mxgraph.bootstrap.leftButton;strokeColor=inherit;gradientColor=inherit;fontColor=inherit;fillColor=#E9ECEF;rSize=5;perimeter=none;whiteSpace=wrap;resizeHeight=1;fontSize=14;" vertex="1" parent="136">
                    <mxGeometry width="100" height="70" as="geometry"/>
                </mxCell>
                <mxCell id="138" value="&amp;nbsp; &amp;nbsp; &amp;nbsp; &amp;nbsp;" style="html=1;shadow=0;dashed=0;shape=mxgraph.bootstrap.rrect;rSize=5;strokeColor=#CED4DA;html=1;whiteSpace=wrap;fillColor=#FFFFFF;fontColor=#7D868C;align=left;spacing=15;spacingLeft=40;fontSize=14;" vertex="1" parent="98">
                    <mxGeometry x="145" y="300" width="800" height="40" as="geometry"/>
                </mxCell>
                <mxCell id="139" value="Correo" style="html=1;shadow=0;dashed=0;shape=mxgraph.bootstrap.leftButton;strokeColor=inherit;gradientColor=inherit;fontColor=inherit;fillColor=#E9ECEF;rSize=5;perimeter=none;whiteSpace=wrap;resizeHeight=1;fontSize=14;" vertex="1" parent="138">
                    <mxGeometry width="80" height="40" as="geometry"/>
                </mxCell>
                <mxCell id="144" value="Vende" style="html=1;shadow=0;dashed=0;shape=mxgraph.bootstrap.radioButton2;labelPosition=right;verticalLabelPosition=middle;align=left;verticalAlign=middle;gradientColor=#DEDEDE;fillColor=#EDEDED;checked=1;spacing=5;checkedFill=#0085FC;checkedStroke=#ffffff;" vertex="1" parent="98">
                    <mxGeometry x="150" y="370" width="10" height="10" as="geometry"/>
                </mxCell>
                <mxCell id="145" value="Compra" style="html=1;shadow=0;dashed=0;shape=mxgraph.bootstrap.radioButton2;labelPosition=right;verticalLabelPosition=middle;align=left;verticalAlign=middle;gradientColor=#DEDEDE;fillColor=#EDEDED;checked=0;spacing=5;checkedFill=#0085FC;checkedStroke=#ffffff;" vertex="1" parent="98">
                    <mxGeometry x="150" y="390" width="10" height="10" as="geometry"/>
                </mxCell>
                <mxCell id="147" value="Enviar" style="html=1;shadow=0;dashed=0;shape=mxgraph.bootstrap.rrect;rSize=5;strokeColor=#33A64C;strokeWidth=1;fillColor=none;fontColor=#33A64C;whiteSpace=wrap;align=center;verticalAlign=middle;spacingLeft=0;fontStyle=0;fontSize=16;spacing=5;" vertex="1" parent="98">
                    <mxGeometry x="150" y="560" width="90" height="40" as="geometry"/>
                </mxCell>
                <mxCell id="148" value="Formulario" style="html=1;shadow=0;dashed=0;shape=mxgraph.bootstrap.rrect;rSize=5;strokeColor=none;strokeWidth=1;fillColor=#1CA5B8;fontColor=#FFFFFF;whiteSpace=wrap;align=left;verticalAlign=middle;spacingLeft=0;fontStyle=1;fontSize=14;spacing=5;" vertex="1" parent="98">
                    <mxGeometry x="145" y="200" width="120" height="20" as="geometry"/>
                </mxCell>
                <mxCell id="149" value="" style="strokeWidth=1;shadow=0;dashed=0;align=center;html=1;shape=mxgraph.mockup.containers.browserWindow;rSize=0;strokeColor=#666666;strokeColor2=#008cff;strokeColor3=#c4c4c4;mainText=,;recursiveResize=0;" vertex="1" parent="1">
                    <mxGeometry x="70" y="2600" width="1120" height="610" as="geometry"/>
                </mxCell>
                <mxCell id="150" value="Propiedades" style="fillColor=none;strokeColor=none;fontSize=14;fontColor=#0085FC;" vertex="1" parent="149">
                    <mxGeometry x="780" y="130" width="60" height="40" as="geometry"/>
                </mxCell>
                <mxCell id="151" value="Page 5" style="strokeWidth=1;shadow=0;dashed=0;align=center;html=1;shape=mxgraph.mockup.containers.anchor;fontSize=17;fontColor=#666666;align=left;" vertex="1" parent="149">
                    <mxGeometry x="60" y="12" width="110" height="26" as="geometry"/>
                </mxCell>
                <mxCell id="152" value="https://www.bienesraices" style="strokeWidth=1;shadow=0;dashed=0;align=center;html=1;shape=mxgraph.mockup.containers.anchor;rSize=0;fontSize=17;fontColor=#666666;align=left;" vertex="1" parent="149">
                    <mxGeometry x="130" y="60" width="250" height="26" as="geometry"/>
                </mxCell>
                <mxCell id="153" value="" style="verticalLabelPosition=bottom;shadow=0;dashed=0;align=center;html=1;verticalAlign=top;strokeWidth=1;shape=mxgraph.mockup.graphics.simpleIcon;strokeColor=#999999;" vertex="1" parent="149">
                    <mxGeometry x="10" y="120" width="50" height="50" as="geometry"/>
                </mxCell>
                <mxCell id="154" value="" style="verticalLabelPosition=bottom;shadow=0;dashed=0;align=center;html=1;verticalAlign=top;strokeWidth=1;shape=mxgraph.mockup.navigation.scrollBar;strokeColor=#999999;barPos=20;fillColor2=#99ddff;strokeColor2=none;direction=north;" vertex="1" parent="149">
                    <mxGeometry x="1090" y="180" width="20" height="380" as="geometry"/>
                </mxCell>
                <mxCell id="156" value="Nosotros" style="fillColor=none;strokeColor=none;fontSize=14;fontColor=#0085FC;" vertex="1" parent="149">
                    <mxGeometry x="680" y="130" width="70" height="40" as="geometry"/>
                </mxCell>
                <mxCell id="157" value="Blog" style="fillColor=none;strokeColor=none;fontSize=14;fontColor=#0085FC;" vertex="1" parent="149">
                    <mxGeometry x="880" y="130" width="60" height="40" as="geometry"/>
                </mxCell>
                <mxCell id="171" value="Contácto" style="fillColor=none;strokeColor=none;fontSize=14;fontColor=#0085FC;" vertex="1" parent="149">
                    <mxGeometry x="960" y="130" width="60" height="40" as="geometry"/>
                </mxCell>
                <mxCell id="172" value="" style="html=1;shadow=0;dashed=0;shape=mxgraph.bootstrap.rrect;rSize=5;fillColor=#ffffff;strokeColor=#999999;" vertex="1" parent="149">
                    <mxGeometry x="380" y="227.5" width="300" height="285" as="geometry"/>
                </mxCell>
                <mxCell id="173" value="Email address" style="fillColor=none;strokeColor=none;align=left;spacing=20;fontSize=14;fontColor=#3f99de;" vertex="1" parent="172">
                    <mxGeometry width="220" height="40" relative="1" as="geometry">
                        <mxPoint y="10" as="offset"/>
                    </mxGeometry>
                </mxCell>
                <mxCell id="174" value="email@example.com" style="html=1;shadow=0;dashed=0;shape=mxgraph.bootstrap.rrect;rSize=5;fillColor=none;strokeColor=#999999;align=left;spacing=15;fontSize=14;fontColor=#6C767D;" vertex="1" parent="172">
                    <mxGeometry width="240" height="30" relative="1" as="geometry">
                        <mxPoint x="20" y="50" as="offset"/>
                    </mxGeometry>
                </mxCell>
                <mxCell id="175" value="Password" style="fillColor=none;strokeColor=none;align=left;spacing=20;fontSize=14;fontColor=#345fb7;" vertex="1" parent="172">
                    <mxGeometry width="220" height="40" relative="1" as="geometry">
                        <mxPoint y="90" as="offset"/>
                    </mxGeometry>
                </mxCell>
                <mxCell id="176" value="Password" style="html=1;shadow=0;dashed=0;shape=mxgraph.bootstrap.rrect;rSize=5;fillColor=none;strokeColor=#999999;align=left;spacing=15;fontSize=14;fontColor=#6C767D;" vertex="1" parent="172">
                    <mxGeometry width="240" height="30" relative="1" as="geometry">
                        <mxPoint x="20" y="130" as="offset"/>
                    </mxGeometry>
                </mxCell>
                <mxCell id="177" value="Remember me" style="html=1;shadow=0;dashed=0;shape=mxgraph.bootstrap.rrect;rSize=2;fillColor=#EDEDED;strokeColor=#999999;align=left;fontSize=14;fontColor=#000000;labelPosition=right;verticalLabelPosition=middle;verticalAlign=middle;spacingLeft=5;spacingTop=-2;gradientColor=#DEDEDE;" vertex="1" parent="172">
                    <mxGeometry width="10" height="10" relative="1" as="geometry">
                        <mxPoint x="20" y="180" as="offset"/>
                    </mxGeometry>
                </mxCell>
                <mxCell id="178" value="Sign in" style="html=1;shadow=0;dashed=0;shape=mxgraph.bootstrap.rrect;rSize=5;fillColor=#0085FC;strokeColor=none;align=center;fontSize=14;fontColor=#FFFFFF;" vertex="1" parent="172">
                    <mxGeometry width="70" height="40" relative="1" as="geometry">
                        <mxPoint x="20" y="210" as="offset"/>
                    </mxGeometry>
                </mxCell>
                <mxCell id="179" value="" style="shape=line;strokeColor=#999999;perimeter=none;resizeWidth=1;" vertex="1" parent="172">
                    <mxGeometry width="300" height="10" relative="1" as="geometry">
                        <mxPoint y="260" as="offset"/>
                    </mxGeometry>
                </mxCell>
                <mxCell id="181" value="" style="strokeWidth=1;shadow=0;dashed=0;align=center;html=1;shape=mxgraph.mockup.containers.browserWindow;rSize=0;strokeColor=#666666;strokeColor2=#008cff;strokeColor3=#c4c4c4;mainText=,;recursiveResize=0;" vertex="1" parent="1">
                    <mxGeometry x="70" y="3270" width="1120" height="610" as="geometry"/>
                </mxCell>
                <mxCell id="182" value="Propiedades" style="fillColor=none;strokeColor=none;fontSize=14;fontColor=#0085FC;" vertex="1" parent="181">
                    <mxGeometry x="780" y="130" width="60" height="40" as="geometry"/>
                </mxCell>
                <mxCell id="183" value="Page 5" style="strokeWidth=1;shadow=0;dashed=0;align=center;html=1;shape=mxgraph.mockup.containers.anchor;fontSize=17;fontColor=#666666;align=left;" vertex="1" parent="181">
                    <mxGeometry x="60" y="12" width="110" height="26" as="geometry"/>
                </mxCell>
                <mxCell id="184" value="https://www.bienesraices" style="strokeWidth=1;shadow=0;dashed=0;align=center;html=1;shape=mxgraph.mockup.containers.anchor;rSize=0;fontSize=17;fontColor=#666666;align=left;" vertex="1" parent="181">
                    <mxGeometry x="130" y="60" width="250" height="26" as="geometry"/>
                </mxCell>
                <mxCell id="185" value="" style="verticalLabelPosition=bottom;shadow=0;dashed=0;align=center;html=1;verticalAlign=top;strokeWidth=1;shape=mxgraph.mockup.graphics.simpleIcon;strokeColor=#999999;" vertex="1" parent="181">
                    <mxGeometry x="10" y="120" width="50" height="50" as="geometry"/>
                </mxCell>
                <mxCell id="186" value="" style="verticalLabelPosition=bottom;shadow=0;dashed=0;align=center;html=1;verticalAlign=top;strokeWidth=1;shape=mxgraph.mockup.navigation.scrollBar;strokeColor=#999999;barPos=20;fillColor2=#99ddff;strokeColor2=none;direction=north;" vertex="1" parent="181">
                    <mxGeometry x="1090" y="180" width="20" height="380" as="geometry"/>
                </mxCell>
                <mxCell id="187" value="Nosotros" style="fillColor=none;strokeColor=none;fontSize=14;fontColor=#0085FC;" vertex="1" parent="181">
                    <mxGeometry x="680" y="130" width="70" height="40" as="geometry"/>
                </mxCell>
                <mxCell id="188" value="Blog" style="fillColor=none;strokeColor=none;fontSize=14;fontColor=#0085FC;" vertex="1" parent="181">
                    <mxGeometry x="880" y="130" width="60" height="40" as="geometry"/>
                </mxCell>
                <mxCell id="189" value="Contácto" style="fillColor=none;strokeColor=none;fontSize=14;fontColor=#0085FC;" vertex="1" parent="181">
                    <mxGeometry x="960" y="130" width="60" height="40" as="geometry"/>
                </mxCell>
                <mxCell id="198" value="Propiedad" style="fillColor=none;strokeColor=none;align=left;fontSize=14;fontColor=#E6E6E6;labelBackgroundColor=none;labelBorderColor=none;" vertex="1" parent="181">
                    <mxGeometry x="140" y="200" width="400" height="30" as="geometry"/>
                </mxCell>
                <mxCell id="199" value="" style="shadow=0;dashed=0;shape=mxgraph.bootstrap.rrect;rSize=5;fillColor=none;strokeColor=#999999;align=left;spacing=15;fontSize=14;fontColor=#E6E6E6;labelBackgroundColor=none;labelBorderColor=none;" vertex="1" parent="181">
                    <mxGeometry x="140" y="230" width="395" height="30" as="geometry"/>
                </mxCell>
                <mxCell id="200" value="Precio" style="fillColor=none;strokeColor=none;align=left;fontSize=14;fontColor=#E6E6E6;labelBackgroundColor=none;labelBorderColor=none;" vertex="1" parent="181">
                    <mxGeometry x="540" y="200" width="400" height="30" as="geometry"/>
                </mxCell>
                <mxCell id="201" value="" style="shadow=0;dashed=0;shape=mxgraph.bootstrap.rrect;rSize=5;fillColor=none;strokeColor=#999999;align=left;spacing=15;fontSize=14;fontColor=#E6E6E6;labelBackgroundColor=none;labelBorderColor=none;" vertex="1" parent="181">
                    <mxGeometry x="545" y="230" width="395" height="30" as="geometry"/>
                </mxCell>
                <mxCell id="202" value="Dirección" style="fillColor=none;strokeColor=none;align=left;fontSize=14;fontColor=#E6E6E6;labelBackgroundColor=none;labelBorderColor=none;" vertex="1" parent="181">
                    <mxGeometry x="140" y="270" width="390" height="30" as="geometry"/>
                </mxCell>
                <mxCell id="203" value="1234 Main St" style="shadow=0;dashed=0;shape=mxgraph.bootstrap.rrect;rSize=5;fillColor=none;strokeColor=#999999;align=left;spacing=15;fontSize=14;fontColor=#E6E6E6;labelBackgroundColor=none;labelBorderColor=none;" vertex="1" parent="181">
                    <mxGeometry x="140" y="300" width="800" height="30" as="geometry"/>
                </mxCell>
                <mxCell id="204" value="Descripción" style="fillColor=none;strokeColor=none;align=left;fontSize=14;fontColor=#E6E6E6;labelBackgroundColor=none;labelBorderColor=none;" vertex="1" parent="181">
                    <mxGeometry x="140" y="340" width="390" height="30" as="geometry"/>
                </mxCell>
                <mxCell id="205" value="Apartment, studio or floor" style="shadow=0;dashed=0;shape=mxgraph.bootstrap.rrect;rSize=5;fillColor=none;strokeColor=#999999;align=left;spacing=15;fontSize=14;fontColor=#E6E6E6;labelBackgroundColor=none;labelBorderColor=none;" vertex="1" parent="181">
                    <mxGeometry x="140" y="370" width="800" height="30" as="geometry"/>
                </mxCell>
                <mxCell id="206" value="City" style="fillColor=none;strokeColor=none;align=left;fontSize=14;fontColor=#E6E6E6;labelBackgroundColor=none;labelBorderColor=none;" vertex="1" parent="181">
                    <mxGeometry x="140" y="410" width="390" height="30" as="geometry"/>
                </mxCell>
                <mxCell id="207" value="" style="shadow=0;dashed=0;shape=mxgraph.bootstrap.rrect;rSize=5;fillColor=none;strokeColor=#999999;align=left;spacing=15;fontSize=14;fontColor=#E6E6E6;labelBackgroundColor=none;labelBorderColor=none;" vertex="1" parent="181">
                    <mxGeometry x="140" y="440" width="390" height="30" as="geometry"/>
                </mxCell>
                <mxCell id="208" value="Imagen" style="fillColor=none;strokeColor=none;align=left;fontSize=14;fontColor=#E6E6E6;labelBackgroundColor=none;labelBorderColor=none;" vertex="1" parent="181">
                    <mxGeometry x="550" y="410" width="220" height="30" as="geometry"/>
                </mxCell>
                <mxCell id="209" value="Cargar imagen..." style="shadow=0;dashed=0;shape=mxgraph.bootstrap.rrect;rSize=5;fillColor=none;strokeColor=#999999;align=left;spacing=15;fontSize=14;fontColor=#E6E6E6;labelBackgroundColor=none;labelBorderColor=none;" vertex="1" parent="181">
                    <mxGeometry x="550" y="440" width="270" height="30" as="geometry"/>
                </mxCell>
                <mxCell id="210" value="" style="shape=triangle;direction=south;fillColor=#212529;strokeColor=none;perimeter=none;fontColor=#345fb7;" vertex="1" parent="209">
                    <mxGeometry x="1" y="0.5" width="10" height="5" relative="1" as="geometry">
                        <mxPoint x="-17" y="-2.5" as="offset"/>
                    </mxGeometry>
                </mxCell>
                <mxCell id="211" value="Zip" style="fillColor=none;strokeColor=none;align=left;fontSize=14;fontColor=#E6E6E6;labelBackgroundColor=none;labelBorderColor=none;" vertex="1" parent="181">
                    <mxGeometry x="840" y="410" width="100" height="30" as="geometry"/>
                </mxCell>
                <mxCell id="212" value="" style="shadow=0;dashed=0;shape=mxgraph.bootstrap.rrect;rSize=5;fillColor=none;strokeColor=#999999;align=left;spacing=15;fontSize=14;fontColor=#E6E6E6;labelBackgroundColor=none;labelBorderColor=none;" vertex="1" parent="181">
                    <mxGeometry x="840" y="440" width="100" height="30" as="geometry"/>
                </mxCell>
                <mxCell id="213" value="Check me out" style="shadow=0;dashed=0;shape=mxgraph.bootstrap.checkbox2;labelPosition=right;verticalLabelPosition=middle;align=left;verticalAlign=middle;gradientColor=#DEDEDE;fillColor=#EDEDED;checked=0;spacing=5;strokeColor=#999999;fontColor=#E6E6E6;checkedFill=#0085FC;checkedStroke=#ffffff;labelBackgroundColor=none;labelBorderColor=none;" vertex="1" parent="181">
                    <mxGeometry x="140" y="490" width="10" height="10" as="geometry"/>
                </mxCell>
                <mxCell id="214" value="Crear" style="shadow=0;dashed=0;shape=mxgraph.bootstrap.rrect;rSize=5;fillColor=#0085FC;strokeColor=none;align=center;fontSize=14;fontColor=#E6E6E6;labelBackgroundColor=none;labelBorderColor=none;" vertex="1" parent="181">
                    <mxGeometry x="140" y="520" width="70" height="40" as="geometry"/>
                </mxCell>
                <mxCell id="215" value="Actualizar" style="shadow=0;dashed=0;shape=mxgraph.bootstrap.rrect;rSize=5;fillColor=#0085FC;strokeColor=none;align=center;fontSize=14;fontColor=#E6E6E6;labelBackgroundColor=none;labelBorderColor=none;" vertex="1" parent="181">
                    <mxGeometry x="230" y="520" width="70" height="40" as="geometry"/>
                </mxCell>
                <mxCell id="219" value="Vendedor" style="html=1;shadow=0;dashed=0;shape=mxgraph.bootstrap.popover;fillColor=#1A1A1A;strokeColor=none;dx=12;dy=5;rSize=5;whiteSpace=wrap;verticalAlign=top;spacing=10;fontSize=12;spacingLeft=0;align=center;spacingTop=-10;fontColor=#FFFFFF;direction=north;spacingRight=5;labelBackgroundColor=none;labelBorderColor=none;" vertex="1" parent="181">
                    <mxGeometry x="130" y="133" width="100" height="24" as="geometry"/>
                </mxCell>
                <mxCell id="220" value="Propiedad" style="html=1;shadow=0;dashed=0;shape=mxgraph.bootstrap.rrect;rSize=5;fillColor=#6C767D;strokeColor=none;perimeter=none;whiteSpace=wrap;resizeWidth=1;align=center;spacing=5;fontColor=#FFFFFF;fontSize=14;labelBackgroundColor=none;labelBorderColor=none;" vertex="1" parent="181">
                    <mxGeometry x="230" y="130" width="110" height="30" as="geometry"/>
                </mxCell>
                <mxCell id="221" value="BienesRaices App" style="shape=umlFrame;whiteSpace=wrap;html=1;width=120;height=30;boundedLbl=1;verticalAlign=middle;align=left;spacingLeft=5;labelBackgroundColor=none;labelBorderColor=none;fontColor=#E6E6E6;" vertex="1" parent="1">
                    <mxGeometry x="190" y="3970" width="600" height="370" as="geometry"/>
                </mxCell>
                <mxCell id="225" style="edgeStyle=orthogonalEdgeStyle;html=1;exitX=1;exitY=0.3333333333333333;exitDx=0;exitDy=0;exitPerimeter=0;entryX=0;entryY=0.5;entryDx=0;entryDy=0;fontColor=#E6E6E6;" edge="1" parent="1" source="222" target="223">
                    <mxGeometry relative="1" as="geometry"/>
                </mxCell>
                <mxCell id="226" style="edgeStyle=orthogonalEdgeStyle;html=1;exitX=1;exitY=0.3333333333333333;exitDx=0;exitDy=0;exitPerimeter=0;fontColor=#E6E6E6;" edge="1" parent="1" source="222" target="224">
                    <mxGeometry relative="1" as="geometry">
                        <Array as="points">
                            <mxPoint x="120" y="4140"/>
                            <mxPoint x="310" y="4140"/>
                        </Array>
                    </mxGeometry>
                </mxCell>
                <mxCell id="222" value="Usuario" style="shape=umlActor;verticalLabelPosition=bottom;verticalAlign=top;html=1;labelBackgroundColor=none;labelBorderColor=none;fontColor=#E6E6E6;" vertex="1" parent="1">
                    <mxGeometry x="80" y="4080" width="40" height="70" as="geometry"/>
                </mxCell>
                <mxCell id="223" value="ver propiedades" style="ellipse;whiteSpace=wrap;html=1;labelBackgroundColor=none;labelBorderColor=none;fontColor=#E6E6E6;" vertex="1" parent="1">
                    <mxGeometry x="220" y="4050" width="140" height="60" as="geometry"/>
                </mxCell>
                <mxCell id="224" value="Solicitar vender o comprar propiedades" style="ellipse;whiteSpace=wrap;html=1;labelBackgroundColor=none;labelBorderColor=none;fontColor=#E6E6E6;" vertex="1" parent="1">
                    <mxGeometry x="240" y="4190" width="140" height="60" as="geometry"/>
                </mxCell>
                <mxCell id="231" style="edgeStyle=orthogonalEdgeStyle;html=1;exitX=0;exitY=0.3333333333333333;exitDx=0;exitDy=0;exitPerimeter=0;entryX=1;entryY=0.5;entryDx=0;entryDy=0;fontColor=#E6E6E6;" edge="1" parent="1" source="227" target="228">
                    <mxGeometry relative="1" as="geometry"/>
                </mxCell>
                <mxCell id="232" style="edgeStyle=orthogonalEdgeStyle;html=1;exitX=0;exitY=0.3333333333333333;exitDx=0;exitDy=0;exitPerimeter=0;entryX=0.989;entryY=0.637;entryDx=0;entryDy=0;entryPerimeter=0;fontColor=#E6E6E6;" edge="1" parent="1" source="227" target="229">
                    <mxGeometry relative="1" as="geometry"/>
                </mxCell>
                <mxCell id="233" style="edgeStyle=orthogonalEdgeStyle;html=1;exitX=0;exitY=0.3333333333333333;exitDx=0;exitDy=0;exitPerimeter=0;entryX=1;entryY=0.5;entryDx=0;entryDy=0;fontColor=#E6E6E6;" edge="1" parent="1" source="227" target="230">
                    <mxGeometry relative="1" as="geometry"/>
                </mxCell>
                <mxCell id="227" value="Administrador" style="shape=umlActor;verticalLabelPosition=bottom;verticalAlign=top;html=1;labelBackgroundColor=none;labelBorderColor=none;fontColor=#E6E6E6;" vertex="1" parent="1">
                    <mxGeometry x="870" y="4090" width="40" height="70" as="geometry"/>
                </mxCell>
                <mxCell id="228" value="Loguearse&lt;span style=&quot;color: rgba(0, 0, 0, 0); font-family: monospace; font-size: 0px; text-align: start;&quot;&gt;%3CmxGraphModel%3E%3Croot%3E%3CmxCell%20id%3D%220%22%2F%3E%3CmxCell%20id%3D%221%22%20parent%3D%220%22%2F%3E%3CmxCell%20id%3D%222%22%20value%3D%22ver%20propiedades%22%20style%3D%22ellipse%3BwhiteSpace%3Dwrap%3Bhtml%3D1%3BlabelBackgroundColor%3Dnone%3BlabelBorderColor%3Dnone%3BfontColor%3D%23E6E6E6%3B%22%20vertex%3D%221%22%20parent%3D%221%22%3E%3CmxGeometry%20x%3D%22240%22%20y%3D%224060%22%20width%3D%22140%22%20height%3D%2260%22%20as%3D%22geometry%22%2F%3E%3C%2FmxCell%3E%3C%2Froot%3E%3C%2FmxGraphModel%3E&lt;/span&gt;" style="ellipse;whiteSpace=wrap;html=1;labelBackgroundColor=none;labelBorderColor=none;fontColor=#E6E6E6;" vertex="1" parent="1">
                    <mxGeometry x="610" y="4030" width="140" height="60" as="geometry"/>
                </mxCell>
                <mxCell id="229" value="CRUD propiedades" style="ellipse;whiteSpace=wrap;html=1;labelBackgroundColor=none;labelBorderColor=none;fontColor=#E6E6E6;" vertex="1" parent="1">
                    <mxGeometry x="600" y="4130" width="140" height="60" as="geometry"/>
                </mxCell>
                <mxCell id="230" value="CRUD vendedores" style="ellipse;whiteSpace=wrap;html=1;labelBackgroundColor=none;labelBorderColor=none;fontColor=#E6E6E6;" vertex="1" parent="1">
                    <mxGeometry x="600" y="4240" width="140" height="60" as="geometry"/>
                </mxCell>
                <mxCell id="234" value="&amp;lt;&amp;lt;include&amp;gt;&amp;gt;" style="html=1;verticalAlign=bottom;labelBackgroundColor=none;endArrow=open;endFill=0;dashed=1;fontColor=#E6E6E6;exitX=1;exitY=0.5;exitDx=0;exitDy=0;entryX=0;entryY=0.5;entryDx=0;entryDy=0;edgeStyle=orthogonalEdgeStyle;" edge="1" parent="1" source="223" target="229">
                    <mxGeometry width="160" relative="1" as="geometry">
                        <mxPoint x="410" y="4160" as="sourcePoint"/>
                        <mxPoint x="570" y="4160" as="targetPoint"/>
                    </mxGeometry>
                </mxCell>
                <mxCell id="235" value="&amp;lt;&amp;lt;include&amp;gt;&amp;gt;" style="html=1;verticalAlign=bottom;labelBackgroundColor=none;endArrow=open;endFill=0;dashed=1;fontColor=#E6E6E6;entryX=0;entryY=0.5;entryDx=0;entryDy=0;edgeStyle=orthogonalEdgeStyle;exitX=1;exitY=0.5;exitDx=0;exitDy=0;" edge="1" parent="1" source="223" target="230">
                    <mxGeometry width="160" relative="1" as="geometry">
                        <mxPoint x="380" y="4100" as="sourcePoint"/>
                        <mxPoint x="590.0000000000027" y="4180" as="targetPoint"/>
                        <Array as="points">
                            <mxPoint x="360" y="4190"/>
                            <mxPoint x="480" y="4190"/>
                            <mxPoint x="480" y="4270"/>
                        </Array>
                    </mxGeometry>
                </mxCell>
                <mxCell id="236" value="Validar datos" style="ellipse;whiteSpace=wrap;html=1;labelBackgroundColor=none;labelBorderColor=none;fontColor=#E6E6E6;" vertex="1" parent="1">
                    <mxGeometry x="410" y="3980" width="140" height="60" as="geometry"/>
                </mxCell>
                <mxCell id="237" value="&amp;lt;&amp;lt;extend&amp;gt;&amp;gt;" style="html=1;verticalAlign=bottom;labelBackgroundColor=none;endArrow=open;endFill=0;dashed=1;fontColor=#E6E6E6;exitX=1;exitY=0.5;exitDx=0;exitDy=0;entryX=0.5;entryY=0;entryDx=0;entryDy=0;edgeStyle=orthogonalEdgeStyle;" edge="1" parent="1" source="236" target="228">
                    <mxGeometry width="160" relative="1" as="geometry">
                        <mxPoint x="570" y="4030" as="sourcePoint"/>
                        <mxPoint x="730" y="4030" as="targetPoint"/>
                    </mxGeometry>
                </mxCell>
                <mxCell id="238" value="Propiedades" style="shape=table;startSize=30;container=1;collapsible=1;childLayout=tableLayout;fixedRows=1;rowLines=0;fontStyle=0;align=center;resizeLast=1;" vertex="1" parent="1">
                    <mxGeometry x="630" y="4580" width="180" height="330" as="geometry">
                        <mxRectangle x="225" y="4430" width="110" height="30" as="alternateBounds"/>
                    </mxGeometry>
                </mxCell>
                <mxCell id="239" value="" style="shape=tableRow;horizontal=0;startSize=0;swimlaneHead=0;swimlaneBody=0;fillColor=none;collapsible=0;dropTarget=0;points=[[0,0.5],[1,0.5]];portConstraint=eastwest;top=0;left=0;right=0;bottom=1;" vertex="1" parent="238">
                    <mxGeometry y="30" width="180" height="30" as="geometry"/>
                </mxCell>
                <mxCell id="240" value="PK" style="shape=partialRectangle;connectable=0;fillColor=none;top=0;left=0;bottom=0;right=0;fontStyle=1;overflow=hidden;" vertex="1" parent="239">
                    <mxGeometry width="30" height="30" as="geometry">
                        <mxRectangle width="30" height="30" as="alternateBounds"/>
                    </mxGeometry>
                </mxCell>
                <mxCell id="241" value="id  int(11)" style="shape=partialRectangle;connectable=0;fillColor=none;top=0;left=0;bottom=0;right=0;align=left;spacingLeft=6;fontStyle=5;overflow=hidden;" vertex="1" parent="239">
                    <mxGeometry x="30" width="150" height="30" as="geometry">
                        <mxRectangle width="150" height="30" as="alternateBounds"/>
                    </mxGeometry>
                </mxCell>
                <mxCell id="242" value="" style="shape=tableRow;horizontal=0;startSize=0;swimlaneHead=0;swimlaneBody=0;fillColor=none;collapsible=0;dropTarget=0;points=[[0,0.5],[1,0.5]];portConstraint=eastwest;top=0;left=0;right=0;bottom=0;" vertex="1" parent="238">
                    <mxGeometry y="60" width="180" height="30" as="geometry"/>
                </mxCell>
                <mxCell id="243" value="" style="shape=partialRectangle;connectable=0;fillColor=none;top=0;left=0;bottom=0;right=0;editable=1;overflow=hidden;" vertex="1" parent="242">
                    <mxGeometry width="30" height="30" as="geometry">
                        <mxRectangle width="30" height="30" as="alternateBounds"/>
                    </mxGeometry>
                </mxCell>
                <mxCell id="244" value="titulo varchar(60)" style="shape=partialRectangle;connectable=0;fillColor=none;top=0;left=0;bottom=0;right=0;align=left;spacingLeft=6;overflow=hidden;" vertex="1" parent="242">
                    <mxGeometry x="30" width="150" height="30" as="geometry">
                        <mxRectangle width="150" height="30" as="alternateBounds"/>
                    </mxGeometry>
                </mxCell>
                <mxCell id="245" value="" style="shape=tableRow;horizontal=0;startSize=0;swimlaneHead=0;swimlaneBody=0;fillColor=none;collapsible=0;dropTarget=0;points=[[0,0.5],[1,0.5]];portConstraint=eastwest;top=0;left=0;right=0;bottom=0;" vertex="1" parent="238">
                    <mxGeometry y="90" width="180" height="30" as="geometry"/>
                </mxCell>
                <mxCell id="246" value="" style="shape=partialRectangle;connectable=0;fillColor=none;top=0;left=0;bottom=0;right=0;editable=1;overflow=hidden;" vertex="1" parent="245">
                    <mxGeometry width="30" height="30" as="geometry">
                        <mxRectangle width="30" height="30" as="alternateBounds"/>
                    </mxGeometry>
                </mxCell>
                <mxCell id="247" value="precio decimal(10,2)" style="shape=partialRectangle;connectable=0;fillColor=none;top=0;left=0;bottom=0;right=0;align=left;spacingLeft=6;overflow=hidden;" vertex="1" parent="245">
                    <mxGeometry x="30" width="150" height="30" as="geometry">
                        <mxRectangle width="150" height="30" as="alternateBounds"/>
                    </mxGeometry>
                </mxCell>
                <mxCell id="248" value="" style="shape=tableRow;horizontal=0;startSize=0;swimlaneHead=0;swimlaneBody=0;fillColor=none;collapsible=0;dropTarget=0;points=[[0,0.5],[1,0.5]];portConstraint=eastwest;top=0;left=0;right=0;bottom=0;" vertex="1" parent="238">
                    <mxGeometry y="120" width="180" height="30" as="geometry"/>
                </mxCell>
                <mxCell id="249" value="" style="shape=partialRectangle;connectable=0;fillColor=none;top=0;left=0;bottom=0;right=0;editable=1;overflow=hidden;" vertex="1" parent="248">
                    <mxGeometry width="30" height="30" as="geometry">
                        <mxRectangle width="30" height="30" as="alternateBounds"/>
                    </mxGeometry>
                </mxCell>
                <mxCell id="250" value="imagen varchar(200)" style="shape=partialRectangle;connectable=0;fillColor=none;top=0;left=0;bottom=0;right=0;align=left;spacingLeft=6;overflow=hidden;" vertex="1" parent="248">
                    <mxGeometry x="30" width="150" height="30" as="geometry">
                        <mxRectangle width="150" height="30" as="alternateBounds"/>
                    </mxGeometry>
                </mxCell>
                <mxCell id="259" style="shape=tableRow;horizontal=0;startSize=0;swimlaneHead=0;swimlaneBody=0;fillColor=none;collapsible=0;dropTarget=0;points=[[0,0.5],[1,0.5]];portConstraint=eastwest;top=0;left=0;right=0;bottom=0;" vertex="1" parent="238">
                    <mxGeometry y="150" width="180" height="30" as="geometry"/>
                </mxCell>
                <mxCell id="260" style="shape=partialRectangle;connectable=0;fillColor=none;top=0;left=0;bottom=0;right=0;editable=1;overflow=hidden;" vertex="1" parent="259">
                    <mxGeometry width="30" height="30" as="geometry">
                        <mxRectangle width="30" height="30" as="alternateBounds"/>
                    </mxGeometry>
                </mxCell>
                <mxCell id="261" value="descripcion  longtext" style="shape=partialRectangle;connectable=0;fillColor=none;top=0;left=0;bottom=0;right=0;align=left;spacingLeft=6;overflow=hidden;" vertex="1" parent="259">
                    <mxGeometry x="30" width="150" height="30" as="geometry">
                        <mxRectangle width="150" height="30" as="alternateBounds"/>
                    </mxGeometry>
                </mxCell>
                <mxCell id="256" style="shape=tableRow;horizontal=0;startSize=0;swimlaneHead=0;swimlaneBody=0;fillColor=none;collapsible=0;dropTarget=0;points=[[0,0.5],[1,0.5]];portConstraint=eastwest;top=0;left=0;right=0;bottom=0;" vertex="1" parent="238">
                    <mxGeometry y="180" width="180" height="30" as="geometry"/>
                </mxCell>
                <mxCell id="257" style="shape=partialRectangle;connectable=0;fillColor=none;top=0;left=0;bottom=0;right=0;editable=1;overflow=hidden;" vertex="1" parent="256">
                    <mxGeometry width="30" height="30" as="geometry">
                        <mxRectangle width="30" height="30" as="alternateBounds"/>
                    </mxGeometry>
                </mxCell>
                <mxCell id="258" value="habitaciones int(1)" style="shape=partialRectangle;connectable=0;fillColor=none;top=0;left=0;bottom=0;right=0;align=left;spacingLeft=6;overflow=hidden;" vertex="1" parent="256">
                    <mxGeometry x="30" width="150" height="30" as="geometry">
                        <mxRectangle width="150" height="30" as="alternateBounds"/>
                    </mxGeometry>
                </mxCell>
                <mxCell id="274" style="shape=tableRow;horizontal=0;startSize=0;swimlaneHead=0;swimlaneBody=0;fillColor=none;collapsible=0;dropTarget=0;points=[[0,0.5],[1,0.5]];portConstraint=eastwest;top=0;left=0;right=0;bottom=0;" vertex="1" parent="238">
                    <mxGeometry y="210" width="180" height="30" as="geometry"/>
                </mxCell>
                <mxCell id="275" style="shape=partialRectangle;connectable=0;fillColor=none;top=0;left=0;bottom=0;right=0;editable=1;overflow=hidden;" vertex="1" parent="274">
                    <mxGeometry width="30" height="30" as="geometry">
                        <mxRectangle width="30" height="30" as="alternateBounds"/>
                    </mxGeometry>
                </mxCell>
                <mxCell id="276" value="wc int(1)" style="shape=partialRectangle;connectable=0;fillColor=none;top=0;left=0;bottom=0;right=0;align=left;spacingLeft=6;overflow=hidden;" vertex="1" parent="274">
                    <mxGeometry x="30" width="150" height="30" as="geometry">
                        <mxRectangle width="150" height="30" as="alternateBounds"/>
                    </mxGeometry>
                </mxCell>
                <mxCell id="271" style="shape=tableRow;horizontal=0;startSize=0;swimlaneHead=0;swimlaneBody=0;fillColor=none;collapsible=0;dropTarget=0;points=[[0,0.5],[1,0.5]];portConstraint=eastwest;top=0;left=0;right=0;bottom=0;" vertex="1" parent="238">
                    <mxGeometry y="240" width="180" height="30" as="geometry"/>
                </mxCell>
                <mxCell id="272" style="shape=partialRectangle;connectable=0;fillColor=none;top=0;left=0;bottom=0;right=0;editable=1;overflow=hidden;" vertex="1" parent="271">
                    <mxGeometry width="30" height="30" as="geometry">
                        <mxRectangle width="30" height="30" as="alternateBounds"/>
                    </mxGeometry>
                </mxCell>
                <mxCell id="273" value="estacionamiento  int(1)" style="shape=partialRectangle;connectable=0;fillColor=none;top=0;left=0;bottom=0;right=0;align=left;spacingLeft=6;overflow=hidden;" vertex="1" parent="271">
                    <mxGeometry x="30" width="150" height="30" as="geometry">
                        <mxRectangle width="150" height="30" as="alternateBounds"/>
                    </mxGeometry>
                </mxCell>
                <mxCell id="268" style="shape=tableRow;horizontal=0;startSize=0;swimlaneHead=0;swimlaneBody=0;fillColor=none;collapsible=0;dropTarget=0;points=[[0,0.5],[1,0.5]];portConstraint=eastwest;top=0;left=0;right=0;bottom=0;" vertex="1" parent="238">
                    <mxGeometry y="270" width="180" height="30" as="geometry"/>
                </mxCell>
                <mxCell id="269" style="shape=partialRectangle;connectable=0;fillColor=none;top=0;left=0;bottom=0;right=0;editable=1;overflow=hidden;" vertex="1" parent="268">
                    <mxGeometry width="30" height="30" as="geometry">
                        <mxRectangle width="30" height="30" as="alternateBounds"/>
                    </mxGeometry>
                </mxCell>
                <mxCell id="270" value="creado date" style="shape=partialRectangle;connectable=0;fillColor=none;top=0;left=0;bottom=0;right=0;align=left;spacingLeft=6;overflow=hidden;" vertex="1" parent="268">
                    <mxGeometry x="30" width="150" height="30" as="geometry">
                        <mxRectangle width="150" height="30" as="alternateBounds"/>
                    </mxGeometry>
                </mxCell>
                <mxCell id="265" style="shape=tableRow;horizontal=0;startSize=0;swimlaneHead=0;swimlaneBody=0;fillColor=none;collapsible=0;dropTarget=0;points=[[0,0.5],[1,0.5]];portConstraint=eastwest;top=0;left=0;right=0;bottom=0;" vertex="1" parent="238">
                    <mxGeometry y="300" width="180" height="30" as="geometry"/>
                </mxCell>
                <mxCell id="266" value="FK" style="shape=partialRectangle;connectable=0;fillColor=none;top=0;left=0;bottom=0;right=0;editable=1;overflow=hidden;" vertex="1" parent="265">
                    <mxGeometry width="30" height="30" as="geometry">
                        <mxRectangle width="30" height="30" as="alternateBounds"/>
                    </mxGeometry>
                </mxCell>
                <mxCell id="267" value="vendedorId" style="shape=partialRectangle;connectable=0;fillColor=none;top=0;left=0;bottom=0;right=0;align=left;spacingLeft=6;overflow=hidden;" vertex="1" parent="265">
                    <mxGeometry x="30" width="150" height="30" as="geometry">
                        <mxRectangle width="150" height="30" as="alternateBounds"/>
                    </mxGeometry>
                </mxCell>
                <mxCell id="252" value="" style="shape=tableRow;horizontal=0;startSize=0;swimlaneHead=0;swimlaneBody=0;fillColor=none;collapsible=0;dropTarget=0;points=[[0,0.5],[1,0.5]];portConstraint=eastwest;top=0;left=0;right=0;bottom=0;" vertex="1" parent="1">
                    <mxGeometry x="235" y="4530" width="180" height="30" as="geometry"/>
                </mxCell>
                <mxCell id="253" value="" style="shape=partialRectangle;connectable=0;fillColor=none;top=0;left=0;bottom=0;right=0;editable=1;overflow=hidden;" vertex="1" parent="252">
                    <mxGeometry width="30" height="30" as="geometry">
                        <mxRectangle width="30" height="30" as="alternateBounds"/>
                    </mxGeometry>
                </mxCell>
                <mxCell id="277" value="Vendedores" style="shape=table;startSize=30;container=1;collapsible=1;childLayout=tableLayout;fixedRows=1;rowLines=0;fontStyle=1;align=center;resizeLast=1;" vertex="1" parent="1">
                    <mxGeometry x="250" y="4580" width="180" height="150" as="geometry"/>
                </mxCell>
                <mxCell id="278" value="" style="shape=tableRow;horizontal=0;startSize=0;swimlaneHead=0;swimlaneBody=0;fillColor=none;collapsible=0;dropTarget=0;points=[[0,0.5],[1,0.5]];portConstraint=eastwest;top=0;left=0;right=0;bottom=1;" vertex="1" parent="277">
                    <mxGeometry y="30" width="180" height="30" as="geometry"/>
                </mxCell>
                <mxCell id="279" value="PK" style="shape=partialRectangle;connectable=0;fillColor=none;top=0;left=0;bottom=0;right=0;fontStyle=1;overflow=hidden;" vertex="1" parent="278">
                    <mxGeometry width="30" height="30" as="geometry">
                        <mxRectangle width="30" height="30" as="alternateBounds"/>
                    </mxGeometry>
                </mxCell>
                <mxCell id="280" value="id int(11)" style="shape=partialRectangle;connectable=0;fillColor=none;top=0;left=0;bottom=0;right=0;align=left;spacingLeft=6;fontStyle=5;overflow=hidden;" vertex="1" parent="278">
                    <mxGeometry x="30" width="150" height="30" as="geometry">
                        <mxRectangle width="150" height="30" as="alternateBounds"/>
                    </mxGeometry>
                </mxCell>
                <mxCell id="281" value="" style="shape=tableRow;horizontal=0;startSize=0;swimlaneHead=0;swimlaneBody=0;fillColor=none;collapsible=0;dropTarget=0;points=[[0,0.5],[1,0.5]];portConstraint=eastwest;top=0;left=0;right=0;bottom=0;" vertex="1" parent="277">
                    <mxGeometry y="60" width="180" height="30" as="geometry"/>
                </mxCell>
                <mxCell id="282" value="" style="shape=partialRectangle;connectable=0;fillColor=none;top=0;left=0;bottom=0;right=0;editable=1;overflow=hidden;" vertex="1" parent="281">
                    <mxGeometry width="30" height="30" as="geometry">
                        <mxRectangle width="30" height="30" as="alternateBounds"/>
                    </mxGeometry>
                </mxCell>
                <mxCell id="283" value="nombre varchar(45)" style="shape=partialRectangle;connectable=0;fillColor=none;top=0;left=0;bottom=0;right=0;align=left;spacingLeft=6;overflow=hidden;" vertex="1" parent="281">
                    <mxGeometry x="30" width="150" height="30" as="geometry">
                        <mxRectangle width="150" height="30" as="alternateBounds"/>
                    </mxGeometry>
                </mxCell>
                <mxCell id="284" value="" style="shape=tableRow;horizontal=0;startSize=0;swimlaneHead=0;swimlaneBody=0;fillColor=none;collapsible=0;dropTarget=0;points=[[0,0.5],[1,0.5]];portConstraint=eastwest;top=0;left=0;right=0;bottom=0;" vertex="1" parent="277">
                    <mxGeometry y="90" width="180" height="30" as="geometry"/>
                </mxCell>
                <mxCell id="285" value="" style="shape=partialRectangle;connectable=0;fillColor=none;top=0;left=0;bottom=0;right=0;editable=1;overflow=hidden;" vertex="1" parent="284">
                    <mxGeometry width="30" height="30" as="geometry">
                        <mxRectangle width="30" height="30" as="alternateBounds"/>
                    </mxGeometry>
                </mxCell>
                <mxCell id="286" value="apellido varchar(45)" style="shape=partialRectangle;connectable=0;fillColor=none;top=0;left=0;bottom=0;right=0;align=left;spacingLeft=6;overflow=hidden;" vertex="1" parent="284">
                    <mxGeometry x="30" width="150" height="30" as="geometry">
                        <mxRectangle width="150" height="30" as="alternateBounds"/>
                    </mxGeometry>
                </mxCell>
                <mxCell id="287" value="" style="shape=tableRow;horizontal=0;startSize=0;swimlaneHead=0;swimlaneBody=0;fillColor=none;collapsible=0;dropTarget=0;points=[[0,0.5],[1,0.5]];portConstraint=eastwest;top=0;left=0;right=0;bottom=0;" vertex="1" parent="277">
                    <mxGeometry y="120" width="180" height="30" as="geometry"/>
                </mxCell>
                <mxCell id="288" value="" style="shape=partialRectangle;connectable=0;fillColor=none;top=0;left=0;bottom=0;right=0;editable=1;overflow=hidden;" vertex="1" parent="287">
                    <mxGeometry width="30" height="30" as="geometry">
                        <mxRectangle width="30" height="30" as="alternateBounds"/>
                    </mxGeometry>
                </mxCell>
                <mxCell id="289" value="telefono varchar(10)" style="shape=partialRectangle;connectable=0;fillColor=none;top=0;left=0;bottom=0;right=0;align=left;spacingLeft=6;overflow=hidden;" vertex="1" parent="287">
                    <mxGeometry x="30" width="150" height="30" as="geometry">
                        <mxRectangle width="150" height="30" as="alternateBounds"/>
                    </mxGeometry>
                </mxCell>
                <mxCell id="290" value="Usuarios" style="shape=table;startSize=30;container=1;collapsible=1;childLayout=tableLayout;fixedRows=1;rowLines=0;fontStyle=1;align=center;resizeLast=1;" vertex="1" parent="1">
                    <mxGeometry x="250" y="4810" width="180" height="120" as="geometry"/>
                </mxCell>
                <mxCell id="291" value="" style="shape=tableRow;horizontal=0;startSize=0;swimlaneHead=0;swimlaneBody=0;fillColor=none;collapsible=0;dropTarget=0;points=[[0,0.5],[1,0.5]];portConstraint=eastwest;top=0;left=0;right=0;bottom=1;" vertex="1" parent="290">
                    <mxGeometry y="30" width="180" height="30" as="geometry"/>
                </mxCell>
                <mxCell id="292" value="PK" style="shape=partialRectangle;connectable=0;fillColor=none;top=0;left=0;bottom=0;right=0;fontStyle=1;overflow=hidden;" vertex="1" parent="291">
                    <mxGeometry width="30" height="30" as="geometry">
                        <mxRectangle width="30" height="30" as="alternateBounds"/>
                    </mxGeometry>
                </mxCell>
                <mxCell id="293" value="id int(11)" style="shape=partialRectangle;connectable=0;fillColor=none;top=0;left=0;bottom=0;right=0;align=left;spacingLeft=6;fontStyle=5;overflow=hidden;" vertex="1" parent="291">
                    <mxGeometry x="30" width="150" height="30" as="geometry">
                        <mxRectangle width="150" height="30" as="alternateBounds"/>
                    </mxGeometry>
                </mxCell>
                <mxCell id="294" value="" style="shape=tableRow;horizontal=0;startSize=0;swimlaneHead=0;swimlaneBody=0;fillColor=none;collapsible=0;dropTarget=0;points=[[0,0.5],[1,0.5]];portConstraint=eastwest;top=0;left=0;right=0;bottom=0;" vertex="1" parent="290">
                    <mxGeometry y="60" width="180" height="30" as="geometry"/>
                </mxCell>
                <mxCell id="295" value="" style="shape=partialRectangle;connectable=0;fillColor=none;top=0;left=0;bottom=0;right=0;editable=1;overflow=hidden;" vertex="1" parent="294">
                    <mxGeometry width="30" height="30" as="geometry">
                        <mxRectangle width="30" height="30" as="alternateBounds"/>
                    </mxGeometry>
                </mxCell>
                <mxCell id="296" value="email varchar(50)" style="shape=partialRectangle;connectable=0;fillColor=none;top=0;left=0;bottom=0;right=0;align=left;spacingLeft=6;overflow=hidden;" vertex="1" parent="294">
                    <mxGeometry x="30" width="150" height="30" as="geometry">
                        <mxRectangle width="150" height="30" as="alternateBounds"/>
                    </mxGeometry>
                </mxCell>
                <mxCell id="297" value="" style="shape=tableRow;horizontal=0;startSize=0;swimlaneHead=0;swimlaneBody=0;fillColor=none;collapsible=0;dropTarget=0;points=[[0,0.5],[1,0.5]];portConstraint=eastwest;top=0;left=0;right=0;bottom=0;" vertex="1" parent="290">
                    <mxGeometry y="90" width="180" height="30" as="geometry"/>
                </mxCell>
                <mxCell id="298" value="" style="shape=partialRectangle;connectable=0;fillColor=none;top=0;left=0;bottom=0;right=0;editable=1;overflow=hidden;" vertex="1" parent="297">
                    <mxGeometry width="30" height="30" as="geometry">
                        <mxRectangle width="30" height="30" as="alternateBounds"/>
                    </mxGeometry>
                </mxCell>
                <mxCell id="299" value="password varchar(60)" style="shape=partialRectangle;connectable=0;fillColor=none;top=0;left=0;bottom=0;right=0;align=left;spacingLeft=6;overflow=hidden;" vertex="1" parent="297">
                    <mxGeometry x="30" width="150" height="30" as="geometry">
                        <mxRectangle width="150" height="30" as="alternateBounds"/>
                    </mxGeometry>
                </mxCell>
                <mxCell id="303" value="" style="edgeStyle=orthogonalEdgeStyle;fontSize=12;html=1;endArrow=ERzeroToMany;endFill=1;entryX=0;entryY=0.5;entryDx=0;entryDy=0;exitX=1;exitY=0.5;exitDx=0;exitDy=0;" edge="1" parent="1" source="278" target="265">
                    <mxGeometry width="100" height="100" relative="1" as="geometry">
                        <mxPoint x="430" y="4830" as="sourcePoint"/>
                        <mxPoint x="530" y="4730" as="targetPoint"/>
                    </mxGeometry>
                </mxCell>
            </root>
        </mxGraphModel>
    </diagram>
</mxfile>